{"title":"Zero No Tsukaima Season 1 - 4 + OST","uid":11548138,"size":24170416965,"categoryP":"video","categoryS":"hd___tv_shows","magnet":"?xt=urn:btih:88e9a90af69d26d4e91b175b864241c754a5ddcf&amp;dn=Zero+No+Tsukaima+Season+1+-+4+%2B+OST&amp;tr=udp%3A%2F%2Ftracker.openbittorrent.com%3A80&amp;tr=udp%3A%2F%2Fopen.demonii.com%3A1337&amp;tr=udp%3A%2F%2Ftracker.coppersurfer.tk%3A6969&amp;tr=udp%3A%2F%2Fexodus.desync.com%3A6969","seeders":0,"leechers":3,"uploader":"akiraaisha","files":-1,"time":1416755436,"description":"Meet Louise, a budding magician. The students at the Tristein Academy call her &quot;Zero Louise&quot;, due to her current record of zero successes with magic. In fact, her magic tends to go spectacularly wrong. Now, as an important test of her aptitude for magic, she must summon a familiar to be her servant. At this critical moment, she summons up all her magic and wishes for a familiar that is &quot;devoted, beautiful and powerful&quot;, and gets... Hiraga Saito, an ordinary Japanese boy. It's difficult to say who is more surprised and dismayed, but the rules don't allow for second attempts. Louise is stuck with her strange familiar, and he with her.\n &lt;a href=&quot;\nhttps://publichd.to/u/akiraaisha&quot; rel=&quot;nofollow&quot; target=&quot;_NEW&quot;&gt;\nhttps://publichd.to/u/akiraaisha&lt;/a&gt;\n &lt;a href=&quot;\nhttp://image.bayimg.com/74b3c779b20a0a51f88ceb409792cb5c8f7bbbee.jpg&quot; rel=&quot;nofollow&quot; target=&quot;_NEW&quot;&gt;\nhttp://image.bayimg.com/74b3c779b20a0a51f88ceb409792cb5c8f7bbbee.jpg&lt;/a&gt;\n &lt;a href=&quot;\nhttp://image.bayimg.com/5b8b237ed191e1af5ca9cfac4f6389932f64441f.jpg&quot; rel=&quot;nofollow&quot; target=&quot;_NEW&quot;&gt;\nhttp://image.bayimg.com/5b8b237ed191e1af5ca9cfac4f6389932f64441f.jpg&lt;/a&gt;\n &lt;a href=&quot;\nhttp://image.bayimg.com/8c48ea690ea3b5851b43a7b861c60cc983c16772.jpg&quot; rel=&quot;nofollow&quot; target=&quot;_NEW&quot;&gt;\nhttp://image.bayimg.com/8c48ea690ea3b5851b43a7b861c60cc983c16772.jpg&lt;/a&gt;\n &lt;a href=&quot;\nhttp://image.bayimg.com/8c7a12f98239b9371a8eb97d6bdf10aa40738dc8.jpg&quot; rel=&quot;nofollow&quot; target=&quot;_NEW&quot;&gt;\nhttp://image.bayimg.com/8c7a12f98239b9371a8eb97d6bdf10aa40738dc8.jpg&lt;/a&gt;\n\nVideo\nID                                       : 1\nFormat                                   : AVC\nFormat/Info                              : Advanced Video Codec\nFormat profile                           : &lt;a class=&quot;__cf_email__&quot; href=&quot;/cdn-cgi/l/email-protection&quot; data-cfemail=&quot;e1ac80888fa1add5cfd1&quot;&gt;[email&amp;#160;protected]&lt;/a&gt;&lt;script cf-hash='f9e31' type=&quot;text/javascript&quot;&gt;\n/* &lt;![CDATA[ */!function(){try{var t=&quot;currentScript&quot;in document?document.currentScript:function(){for(var t=document.getElementsByTagName(&quot;script&quot;),e=t.length;e--;)if(t[e].getAttribute(&quot;cf-hash&quot;))return t[e]}();if(t&amp;&amp;t.previousSibling){var e,r,n,i,c=t.previousSibling,a=c.getAttribute(&quot;data-cfemail&quot;);if(a){for(e=&quot;&quot;,r=parseInt(a.substr(0,2),16),n=2;a.length-n;n+=2)i=parseInt(a.substr(n,2),16)^r,e+=String.fromCharCode(i);e=document.createTextNode(e),c.parentNode.replaceChild(e,c)}}}catch(u){}}();/* ]]&gt; */&lt;/script&gt;\nFormat settings, CABAC                   : Yes\nFormat settings, ReFrames                : 4 frames\nCodec ID                                 : avc1\nCodec ID/Info                            : Advanced Video Coding\nDuration                                 : 23mn 41s\nBit rate                                 : 2 260 Kbps\nWidth                                    : 1 280 pixels\nHeight                                   : 720 pixels\nDisplay aspect ratio                     : 16:9\nFrame rate mode                          : Variable\nFrame rate                               : 23.976 fps\nMinimum frame rate                       : 23.810 fps\nMaximum frame rate                       : 24.390 fps\nColor space                              : YUV\nChroma subsampling                       : 4:2:0\nBit depth                                : 8 bits\nScan type                                : Progressive\nBits/(Pixel*Frame)                       : 0.102\nStream size                              : 383 MiB (94%)\nWriting library                          : x264 core 130 r2273 b3065e6\nEncoding settings                        : cabac=1 / ref=1 / deblock=1:0:0 / analyse=0x1:0x111 / me=hex / subme=2 / psy=1 / psy_rd=1.00:0.00 / mixed_ref=0 / me_range=16 / chroma_me=1 / trellis=0 / 8x8dct=0 / cqm=0 / deadzone=21,11 / fast_pskip=1 / chroma_qp_offset=0 / threads=6 / lookahead_threads=2 / sliced_threads=0 / nr=0 / decimate=1 / interlaced=0 / bluray_compat=0 / constrained_intra=0 / bframes=3 / b_pyramid=2 / b_adapt=1 / b_bias=0 / direct=1 / weightb=1 / open_gop=0 / weightp=1 / keyint=240 / keyint_min=24 / scenecut=40 / intra_refresh=0 / rc_lookahead=10 / rc=crf / mbtree=1 / crf=18.0 / qcomp=0.60 / qpmin=0 / qpmax=69 / qpstep=4 / vbv_maxrate=20000 / vbv_bufsize=25000 / crf_max=0.0 / nal_hrd=none / ip_ratio=1.40 / aq=1:1.00\nEncoded date                             : UTC 2014-08-06 10:09:46\nTagged date                              : UTC 2014-08-06 10:38:15\nColor primaries                          : BT.709\nTransfer characteristics                 : BT.709\nMatrix coefficients                      : BT.709\n\nAudio\nID                                       : 2\nFormat                                   : AAC\nFormat/Info                              : Advanced Audio Codec\nFormat profile                           : LC\nCodec ID                                 : 40\nDuration                                 : 23mn 41s\nBit rate mode                            : Variable\nBit rate                                 : 128 Kbps\nMaximum bit rate                         : 256 Kbps\nChannel(s)                               : 2 channels\nChannel positions                        : Front: L R\nSampling rate                            : 48.0 KHz\nCompression mode                         : Lossy\nStream size                              : 21.7 MiB (5%)\nLanguage                                 : Japanese\nEncoded date                             : UTC 2014-08-06 10:09:46\nTagged date                              : UTC 2014-08-06 10:38:14\n\nMenu\nID                                       : 3\nCodec ID                                 : text\nDuration                                 : 23mn 41s\nEncoded date                             : UTC 2014-08-06 10:09:46\nTagged date                              : UTC 2014-08-06 10:38:15\nBit rate mode                            : CBR","torrent":{"xt":"urn:btih:88e9a90af69d26d4e91b175b864241c754a5ddcf","amp;dn":"Zero+No+Tsukaima+Season+1+-+4+%2B+OST","amp;tr":["udp%3A%2F%2Ftracker.openbittorrent.com%3A80","udp%3A%2F%2Fopen.demonii.com%3A1337","udp%3A%2F%2Ftracker.coppersurfer.tk%3A6969","udp%3A%2F%2Fexodus.desync.com%3A6969"],"infoHash":"88e9a90af69d26d4e91b175b864241c754a5ddcf","infoHashBuffer":{"type":"Buffer","data":[136,233,169,10,246,157,38,212,233,27,23,91,134,66,65,199,84,165,221,207]},"announce":[],"urlList":[]}}